HIERARCHY
ROOT Hips
{
	OFFSET 0.000000 0.000000 0.000000
	CHANNELS 6 Xposition Yposition Zposition Zrotation Yrotation Xrotation 
	JOINT LeftUpLeg_virtual
	{
		OFFSET 0.000000 0.000000 0.000000
		CHANNELS 3 Zrotation Yrotation Xrotation
		JOINT LeftUpLeg
		{
			OFFSET 8.479694 -4.795517 -0.379053
			CHANNELS 3 Zrotation Yrotation Xrotation
			JOINT LeftLeg
			{
				OFFSET 0.485052 -32.551468 0.112863
				CHANNELS 3 Zrotation Yrotation Xrotation
				JOINT LeftFoot
				{
					OFFSET 0.438033 -32.635670 -3.012641
					CHANNELS 3 Zrotation Yrotation Xrotation
					JOINT LeftToeBase
					{
						OFFSET 0.970169 -13.225353 11.864223
						CHANNELS 3 Zrotation Yrotation Xrotation
						End Site
						{
							OFFSET 0.000000 0.000000 0.000000
						}
					}
				}
			}
		}
	}
	JOINT RightUpLeg_virtual
	{
		OFFSET 0.000000 0.000000 0.000000
		CHANNELS 3 Zrotation Yrotation Xrotation
		JOINT RightUpLeg
		{
			OFFSET -8.479694 -4.795517 -0.379053
			CHANNELS 3 Zrotation Yrotation Xrotation
			JOINT RightLeg
			{
				OFFSET -0.484100 -32.551483 0.112903
				CHANNELS 3 Zrotation Yrotation Xrotation
				JOINT RightFoot
				{
					OFFSET -0.438985 -32.635651 -3.012681
					CHANNELS 3 Zrotation Yrotation Xrotation
					JOINT RightToeBase
					{
						OFFSET -0.970169 -13.225354 11.864223
						CHANNELS 3 Zrotation Yrotation Xrotation
						End Site
						{
							OFFSET 0.000000 0.000000 0.000000
						}
					}
				}
			}
		}
	}
	JOINT Spine_virtual
	{
		OFFSET 0.000000 0.000000 0.000000
		CHANNELS 3 Zrotation Yrotation Xrotation
		JOINT Spine
		{
			OFFSET 0.000000 7.722015 1.166203
			CHANNELS 3 Zrotation Yrotation Xrotation
			JOINT Spine1
			{
				OFFSET 0.000000 12.024086 0.248766
				CHANNELS 3 Zrotation Yrotation Xrotation
				JOINT Spine2
				{
					OFFSET -0.000000 11.503036 -0.491240
					CHANNELS 3 Zrotation Yrotation Xrotation
					JOINT Neck_virtual
					{
						OFFSET 0.000000 0.000000 0.000000
						CHANNELS 3 Zrotation Yrotation Xrotation
						JOINT Neck
						{
							OFFSET 0.000000 18.430687 -3.123054
							CHANNELS 3 Zrotation Yrotation Xrotation
							JOINT Head
							{
								OFFSET -0.000000 9.051071 1.034021
								CHANNELS 3 Zrotation Yrotation Xrotation
								End Site
								{
									OFFSET 0.000000 0.000000 0.000000
								}
							}
						}
					}
					JOINT LeftShoulder_virtual
					{
						OFFSET 0.000000 0.000000 0.000000
						CHANNELS 3 Zrotation Yrotation Xrotation
						JOINT LeftShoulder
						{
							OFFSET 6.197824 13.665230 -4.064723
							CHANNELS 3 Zrotation Yrotation Xrotation
							JOINT LeftArm
							{
								OFFSET 7.778132 -0.187073 -1.709282
								CHANNELS 3 Zrotation Yrotation Xrotation
								JOINT LeftForeArm
								{
									OFFSET 21.954697 0.000000 -2.041093
									CHANNELS 3 Zrotation Yrotation Xrotation
									JOINT LeftHand
									{
										OFFSET 22.992908 0.000000 -0.870901
										CHANNELS 3 Zrotation Yrotation Xrotation
										End Site
										{
											OFFSET 0.000000 0.000000 0.000000
										}
									}
								}
							}
						}
					}
					JOINT RightShoulder_virtual
					{
						OFFSET 0.000000 0.000000 0.000000
						CHANNELS 3 Zrotation Yrotation Xrotation
						JOINT RightShoulder
						{
							OFFSET -6.197824 13.665230 -4.064723
							CHANNELS 3 Zrotation Yrotation Xrotation
							JOINT RightArm
							{
								OFFSET -7.778132 -0.187073 -1.709282
								CHANNELS 3 Zrotation Yrotation Xrotation
								JOINT RightForeArm
								{
									OFFSET -21.954697 0.000000 -2.041093
									CHANNELS 3 Zrotation Yrotation Xrotation
									JOINT RightHand
									{
										OFFSET -22.992908 0.000000 -0.870901
										CHANNELS 3 Zrotation Yrotation Xrotation
										End Site
										{
											OFFSET 0.000000 0.000000 0.000000
										}
									}
								}
							}
						}
					}
				}
			}
		}
	}
}
MOTION
Frames: 5
Frame Time: 0.033333
-9.629076 81.179367 -34.674549 -179.999090 -2.795465 -179.061728 -2.880625 -2.111400 11.030274 0.129550 7.023086 -25.678064 7.681924 5.229592 32.072157 -7.232837 -13.411076 -9.116768 0.000000 0.000000 0.000000 -0.663396 -3.774450 11.994777 -0.765173 0.254037 -24.699243 -2.229766 3.740345 33.055834 9.276642 3.196356 -11.431355 0.000000 0.000000 0.000000 3.672036 -0.305928 -6.475149 -2.914945 -0.400828 0.297468 -0.449810 -1.863811 8.577612 -0.035541 -0.088232 0.109832 -0.912275 -0.482491 10.062977 0.283015 -3.538331 -14.826891 0.000000 0.000000 0.000000 0.669513 -0.004743 7.721999 -8.494530 -4.121856 3.777658 -66.514698 -1.983626 19.722965 5.176759 -36.524081 4.010063 0.000000 0.000000 0.000000 -3.292808 1.484931 6.904499 29.652262 1.874149 6.720866 56.226582 5.591630 25.877457 -5.910289 26.296182 -3.251037 0.000000 0.000000 0.000000 
-9.618667 81.177650 -34.660324 -179.845834 -2.946603 -178.778207 -3.034953 -1.853592 11.342539 -0.001459 7.129703 -25.315073 7.533788 4.943734 32.244821 -7.613695 -13.753098 -8.518471 0.000000 0.000000 0.000000 -0.787219 -4.179344 12.272576 -0.753918 -0.196513 -24.394565 -2.487768 3.377365 33.307575 8.778511 2.599999 -11.171995 0.000000 0.000000 0.000000 3.827910 -0.423555 -6.666783 -2.861227 -0.389930 0.168147 -0.436580 -1.907814 8.509282 -0.005712 -0.148027 0.239718 -0.968591 -0.509374 10.046806 0.282076 -3.585247 -14.810680 0.000000 0.000000 0.000000 0.611184 -0.051917 7.872970 -8.597921 -4.088488 3.826344 -66.550734 -2.078151 19.690232 5.604022 -36.531076 3.567800 0.000000 0.000000 0.000000 -3.369804 1.630173 6.992173 29.646733 1.836887 6.652516 56.224256 5.738631 25.874247 -5.849640 26.159679 -3.237706 0.000000 0.000000 0.000000 
-9.603668 81.177963 -34.648880 -179.850656 -2.990217 -178.783849 -3.017931 -1.908839 11.316946 -0.026402 7.148918 -25.291832 7.548844 4.885713 32.251846 -7.656478 -13.753283 -8.518093 0.000000 0.000000 0.000000 -0.784037 -4.242369 12.261176 -0.747337 -0.238793 -24.424277 -2.462804 3.383670 33.366236 8.800922 2.566080 -11.187718 0.000000 0.000000 0.000000 3.896754 -0.546970 -6.676487 -2.858838 -0.357834 0.187607 -0.463741 -2.048937 8.572675 -0.048082 -0.128385 0.166488 -0.925655 -0.467866 10.071940 0.288320 -3.524397 -14.870725 0.000000 0.000000 0.000000 0.621536 0.120811 7.851239 -8.559652 -4.038009 3.762696 -66.521357 -2.070358 19.697997 5.338586 -36.580833 3.854880 0.000000 0.000000 0.000000 -3.374955 1.682416 6.990311 29.664085 1.994994 6.698590 56.194019 5.637611 25.880090 -5.865153 26.259002 -3.294185 0.000000 0.000000 0.000000 
-9.593856 81.180542 -34.643402 -179.859686 -2.840494 -178.784942 -2.999518 -1.888546 11.296364 -0.061748 7.255263 -25.263377 7.560063 4.946246 32.274406 -7.670907 -13.714602 -8.534134 0.000000 0.000000 0.000000 -0.765160 -4.231078 12.250749 -0.769836 -0.161980 -24.475488 -2.482121 3.450608 33.450729 8.875859 2.544986 -11.183175 0.000000 0.000000 0.000000 3.926638 -0.447509 -6.657310 -2.855356 -0.384096 0.181829 -0.443912 -1.908570 8.566614 -0.017901 -0.169575 0.229650 -1.010008 -0.528572 10.087748 0.232389 -3.531969 -14.821393 0.000000 0.000000 0.000000 0.567573 0.019144 7.871849 -8.566116 -4.001358 3.827273 -66.505784 -2.155744 19.864388 5.570519 -36.570189 3.622609 0.000000 0.000000 0.000000 -3.448859 1.644342 7.006504 29.695962 1.955843 6.686474 56.223491 5.740713 25.987861 -5.826202 26.325207 -3.323760 0.000000 0.000000 0.000000 
-9.582968 81.183487 -34.636890 -179.856298 -2.762087 -178.785147 -2.988693 -1.875679 11.267512 -0.088981 7.346595 -25.252099 7.576039 4.952601 32.310312 -7.703023 -13.699272 -8.556716 0.000000 0.000000 0.000000 -0.730288 -4.233013 12.241761 -0.793921 -0.131419 -24.532861 -2.467745 3.528837 33.537677 8.946734 2.501100 -11.172484 0.000000 0.000000 0.000000 3.934443 -0.493134 -6.663206 -2.834314 -0.492911 0.164577 -0.444474 -1.851422 8.607521 -0.042501 -0.088829 0.207933 -1.005628 -0.480406 10.126897 0.194611 -3.483565 -14.939632 0.000000 0.000000 0.000000 0.579530 0.041286 7.846891 -8.585477 -3.952016 3.803005 -66.485608 -2.151330 19.952137 5.484967 -36.629881 3.696008 0.000000 0.000000 0.000000 -3.433811 1.631953 6.999438 29.710937 2.028648 6.680337 56.184545 5.738970 25.984825 -5.762739 26.364438 -3.325874 0.000000 0.000000 0.000000 
